<svg xmlns="http://www.w3.org/2000/svg" viewBox="0 0 328.75 153.21"><path d="M264.3,60.19a5.48,5.48,0,0,0-3-1.39,14.86,14.86,0,0,0-3.33-.12l-.43-2.12c-.44-2.22-.61-3.16-1-5.09-.1-.51-.27-1.3-.48-2.28-1.45,2.21-2.85,4.45-4.33,6.64l-.21.3a11.06,11.06,0,0,1-1.75,2.51c-.67.06-1.34,0-2,0-.62-3.15-1.16-6.33-1.93-9.45-2,3.15-4.08,6.28-6.11,9.43l-1.48,0c-.62-3.15-1.19-6.32-1.92-9.46-2.06,3.14-4.07,6.31-6.14,9.44l-2.41,0q-.53-2.79-1.06-5.6L226,49.23c-2.18,3.08-4.12,6.31-6.2,9.45l-1.26,0c-.58-3.15-1.17-6.3-1.89-9.42-2.06,3.15-4.1,6.31-6.15,9.46-5.25,0-10.51,0-15.77,0,2.18-2.55,4.47-5,6.69-7.51,3,.64,6.05,1.28,9.07,1.94-1.53-2.31-3.08-4.61-4.62-6.92.89-1,1.75-2,2.65-3,3.11.64,6.2,1.34,9.32,2-1.61-2.34-3.18-4.71-4.75-7.08a31.5,31.5,0,0,1,2.8-3c3.11.53,6.18,1.33,9.28,1.91-1.61-2.35-3.18-4.73-4.76-7.1.82-.9,1.62-1.8,2.41-2.72,3.48.79,7,1.38,10.46,2.24-1.74-2.67-3.52-5.32-5.31-8,.61-.73,1.26-1.43,1.89-2.14,3.86.86,7.74,1.63,11.59,2.5-2-2.92-3.89-5.92-5.94-8.8,1.29-1.54,3-2.94,3.37-5A6.26,6.26,0,0,0,236.82,2a6.34,6.34,0,0,0-7.57-.37,12.8,12.8,0,0,0-1.8,1.73c-13.89,15.61-27.91,31.11-41.77,46.75a64,64,0,0,0-9.23-21h0a3.25,3.25,0,0,0-.3-.38,37.06,37.06,0,0,0-5.55-5.92,23.68,23.68,0,0,0-16.09-5.85A28.94,28.94,0,0,0,136.18,25c-5.74,5.45-9.14,13-10.42,20.78a37.19,37.19,0,0,0,2.82,22,31.32,31.32,0,0,0,6.88,9c2.52,2.51,11.83,11.17,25.41,13.87a64,64,0,0,1,13,3.94c2.28.91,4.67,2.1,5.91,4.32.65,1.13,1.36,2.79.24,3.87-1.9,2-4.67,2.87-7.25,3.68-8.18,2.23-16.73,2.58-25.16,2.82-1.13,0-3.2-.82-5,.21-2.33,1.3-3.85,4.92-2.71,6.59a2.62,2.62,0,0,0,.74.67,8.5,8.5,0,0,0,4,1.46c10.61,1,23.46-1.66,23.46-1.66,5.39-.92,10.91-2.18,15.54-5.2a12.3,12.3,0,0,0,5.75-8.3c.63-4.7-1.65-9.41-5.08-12.53s-8.17-4.67-12.63-6C155.37,79.53,157,80,154.88,79S139.35,71.94,135.6,60.9a33.27,33.27,0,0,1-1.52-8.76,30.71,30.71,0,0,1,.79-7.29,26.06,26.06,0,0,1,3.43-8.68,21.59,21.59,0,0,1,7.24-7.25c1.58-.94,7.39-4.38,14-2.52,5,1.43,7.78,5.2,10.43,8.82,2.78,3.79,4,7.24,5.37,11.06a64.69,64.69,0,0,1,3,11.95c-.81,1-1.7,1.88-2.5,2.86a6.28,6.28,0,0,0,.13,7.8,7.71,7.71,0,0,0,4.33,2.24,18.2,18.2,0,0,0,8.35.05c3.86-.93,17.83-1.4,57.64-.06.5.26,7.45,3.69,13.08,0C263.65,68.38,266,62.23,264.3,60.19Zm-36.84-2.65" transform="translate(-1.43 -0.5)" style="fill:#636363"/><path d="M27.24,117.3H27L23.32,153H8.89L1.43,86.05H11.66L17.2,138.8h.19l5-52.75H32.49l5.16,53.14h.19L43.2,86.05h9.17L44.92,153H31Z" transform="translate(-1.43 -0.5)"/><path d="M56.77,102.11c0-10.71,5.64-16.82,16-16.82s16,6.11,16,16.82v34.78c0,10.71-5.64,16.82-16,16.82s-16-6.11-16-16.82Zm10.51,35.45c0,4.78,2.1,6.6,5.45,6.6s5.44-1.82,5.44-6.6V101.44c0-4.78-2.1-6.6-5.44-6.6s-5.45,1.82-5.45,6.6Z" transform="translate(-1.43 -0.5)"/><path d="M117.45,153c-.57-1.72-1-2.77-1-8.22V134.22c0-6.21-2.11-8.51-6.88-8.51H106V153H95.47V86.05h15.87c10.89,0,15.57,5.07,15.57,15.39v5.25c0,6.89-2.19,11.28-6.88,13.48v.19c5.26,2.2,7,7.17,7,14.14v10.33c0,3.24.09,5.63,1.15,8.12ZM106,95.61v20.55h4.11c3.92,0,6.31-1.72,6.31-7.08v-6.59c0-4.78-1.62-6.88-5.35-6.88Z" transform="translate(-1.43 -0.5)"/><path d="M133.89,86.05h16.63c10.51,0,15.67,5.83,15.67,16.54v33.83c0,10.7-5.16,16.53-15.67,16.53H133.89Zm10.51,9.56v47.78h5.93c3.34,0,5.35-1.72,5.35-6.5V102.11c0-4.78-2-6.5-5.35-6.5Z" transform="translate(-1.43 -0.5)"/><path d="M184.64,86.05h32.49v9.56h-11V153H195.63V95.61h-11Z" transform="translate(-1.43 -0.5)"/><path d="M243.7,153c-.58-1.72-1-2.77-1-8.22V134.22c0-6.21-2.1-8.51-6.88-8.51h-3.63V153H221.72V86.05h15.86c10.89,0,15.58,5.07,15.58,15.39v5.25c0,6.89-2.2,11.28-6.88,13.48v.19c5.25,2.2,7,7.17,7,14.14v10.33c0,3.24.1,5.63,1.15,8.12ZM232.23,95.61v20.55h4.11c3.92,0,6.31-1.72,6.31-7.08v-6.59c0-4.78-1.63-6.88-5.36-6.88Z" transform="translate(-1.43 -0.5)"/><path d="M294.16,153H283.55l-1.82-12.14h-12.9L267,153h-9.65l10.71-66.9h15.38Zm-24-21.22H280.3l-5-33.83h-.19Z" transform="translate(-1.43 -0.5)"/><path d="M330.19,102.59v8.69c0,10.71-5.16,16.53-15.68,16.53h-5V153H299V86.05h15.48C325,86.05,330.19,91.88,330.19,102.59Zm-20.65-7v22.65h5c3.35,0,5.16-1.53,5.16-6.31v-10c0-4.78-1.81-6.31-5.16-6.31Z" transform="translate(-1.43 -0.5)"/></svg>